<svg xmlns="http://www.w3.org/2000/svg" viewBox="0 0 700 400">
  <!-- Background -->
  <rect width="700" height="400" fill="#ffffff"/>
  
  <!-- Title -->
  <text x="350" y="30" font-family="Arial" font-size="18" font-weight="bold" text-anchor="middle" fill="#333">Balanceamento da Distribuição de Ângulos de Direção</text>
  
  <!-- Axis Lines -->
  <!-- Original Data Section -->
  <line x1="50" y1="150" x2="650" y2="150" stroke="#333" stroke-width="2"/>
  <line x1="50" y1="50" x2="50" y2="150" stroke="#333" stroke-width="2"/>
  
  <!-- Labels for original data -->
  <text x="350" y="175" font-family="Arial" font-size="14" font-weight="bold" text-anchor="middle" fill="#333">Ângulo de Direção</text>
  <text x="30" y="100" font-family="Arial" font-size="14" font-weight="bold" text-anchor="middle" fill="#333" transform="rotate(-90, 30, 100)">Número de Amostras</text>
  <text x="350" y="195" font-family="Arial" font-size="14" text-anchor="middle" fill="#333" font-style="italic">Distribuição Original</text>
  
  <!-- Balanced Data Section -->
  <line x1="50" y1="350" x2="650" y2="350" stroke="#333" stroke-width="2"/>
  <line x1="50" y1="250" x2="50" y2="350" stroke="#333" stroke-width="2"/>
  
  <!-- Labels for balanced data -->
  <text x="350" y="375" font-family="Arial" font-size="14" font-weight="bold" text-anchor="middle" fill="#333">Ângulo de Direção</text>
  <text x="30" y="300" font-family="Arial" font-size="14" font-weight="bold" text-anchor="middle" fill="#333" transform="rotate(-90, 30, 300)">Número de Amostras</text>
  <text x="350" y="395" font-family="Arial" font-size="14" text-anchor="middle" fill="#333" font-style="italic">Distribuição Balanceada</text>
  
  <!-- Original Distribution Histogram -->
  <!-- Center bins (straight driving) highly overrepresented -->
  <rect x="320" y="60" width="20" height="90" fill="#4682B4" stroke="#333" stroke-width="1"/>
  <rect x="340" y="65" width="20" height="85" fill="#4682B4" stroke="#333" stroke-width="1"/>
  <rect x="360" y="80" width="20" height="70" fill="#4682B4" stroke="#333" stroke-width="1"/>
  
  <rect x="300" y="95" width="20" height="55" fill="#4682B4" stroke="#333" stroke-width="1"/>
  <rect x="380" y="95" width="20" height="55" fill="#4682B4" stroke="#333" stroke-width="1"/>
  
  <rect x="280" y="115" width="20" height="35" fill="#4682B4" stroke="#333" stroke-width="1"/>
  <rect x="400" y="115" width="20" height="35" fill="#4682B4" stroke="#333" stroke-width="1"/>
  
  <rect x="260" y="125" width="20" height="25" fill="#4682B4" stroke="#333" stroke-width="1"/>
  <rect x="420" y="125" width="20" height="25" fill="#4682B4" stroke="#333" stroke-width="1"/>
  
  <rect x="240" y="130" width="20" height="20" fill="#4682B4" stroke="#333" stroke-width="1"/>
  <rect x="440" y="130" width="20" height="20" fill="#4682B4" stroke="#333" stroke-width="1"/>
  
  <rect x="220" y="135" width="20" height="15" fill="#4682B4" stroke="#333" stroke-width="1"/>
  <rect x="460" y="135" width="20" height="15" fill="#4682B4" stroke="#333" stroke-width="1"/>
  
  <rect x="200" y="140" width="20" height="10" fill="#4682B4" stroke="#333" stroke-width="1"/>
  <rect x="480" y="140" width="20" height="10" fill="#4682B4" stroke="#333" stroke-width="1"/>
  
  <rect x="180" y="142" width="20" height="8" fill="#4682B4" stroke="#333" stroke-width="1"/>
  <rect x="500" y="142" width="20" height="8" fill="#4682B4" stroke="#333" stroke-width="1"/>
  
  <rect x="160" y="144" width="20" height="6" fill="#4682B4" stroke="#333" stroke-width="1"/>
  <rect x="520" y="144" width="20" height="6" fill="#4682B4" stroke="#333" stroke-width="1"/>
  
  <rect x="140" y="146" width="20" height="4" fill="#4682B4" stroke="#333" stroke-width="1"/>
  <rect x="540" y="146" width="20" height="4" fill="#4682B4" stroke="#333" stroke-width="1"/>
  
  <rect x="120" y="147" width="20" height="3" fill="#4682B4" stroke="#333" stroke-width="1"/>
  <rect x="560" y="147" width="20" height="3" fill="#4682B4" stroke="#333" stroke-width="1"/>
  
  <rect x="100" y="148" width="20" height="2" fill="#4682B4" stroke="#333" stroke-width="1"/>
  <rect x="580" y="148" width="20" height="2" fill="#4682B4" stroke="#333" stroke-width="1"/>
  
  <rect x="80" y="149" width="20" height="1" fill="#4682B4" stroke="#333" stroke-width="1"/>
  <rect x="600" y="149" width="20" height="1" fill="#4682B4" stroke="#333" stroke-width="1"/>
  
  <!-- Balanced Distribution Histogram -->
  <rect x="320" y="290" width="20" height="60" fill="#FF8C00" stroke="#333" stroke-width="1"/>
  <rect x="340" y="290" width="20" height="60" fill="#FF8C00" stroke="#333" stroke-width="1"/>
  <rect x="360" y="290" width="20" height="60" fill="#FF8C00" stroke="#333" stroke-width="1"/>
  
  <rect x="300" y="290" width="20" height="60" fill="#FF8C00" stroke="#333" stroke-width="1"/>
  <rect x="380" y="290" width="20" height="60" fill="#FF8C00" stroke="#333" stroke-width="1"/>
  
  <rect x="280" y="290" width="20" height="60" fill="#FF8C00" stroke="#333" stroke-width="1"/>
  <rect x="400" y="290" width="20" height="60" fill="#FF8C00" stroke="#333" stroke-width="1"/>
  
  <rect x="260" y="295" width="20" height="55" fill="#FF8C00" stroke="#333" stroke-width="1"/>
  <rect x="420" y="295" width="20" height="55" fill="#FF8C00" stroke="#333" stroke-width="1"/>
  
  <rect x="240" y="300" width="20" height="50" fill="#FF8C00" stroke="#333" stroke-width="1"/>
  <rect x="440" y="300" width="20" height="50" fill="#FF8C00" stroke="#333" stroke-width="1"/>
  
  <rect x="220" y="305" width="20" height="45" fill="#FF8C00" stroke="#333" stroke-width="1"/>
  <rect x="460" y="305" width="20" height="45" fill="#FF8C00" stroke="#333" stroke-width="1"/>
  
  <rect x="200" y="310" width="20" height="40" fill="#FF8C00" stroke="#333" stroke-width="1"/>
  <rect x="480" y="310" width="20" height="40" fill="#FF8C00" stroke="#333" stroke-width="1"/>
  
  <rect x="180" y="315" width="20" height="35" fill="#FF8C00" stroke="#333" stroke-width="1"/>
  <rect x="500" y="315" width="20" height="35" fill="#FF8C00" stroke="#333" stroke-width="1"/>
  
  <rect x="160" y="320" width="20" height="30" fill="#FF8C00" stroke="#333" stroke-width="1"/>
  <rect x="520" y="320" width="20" height="30" fill="#FF8C00" stroke="#333" stroke-width="1"/>
  
  <rect x="140" y="325" width="20" height="25" fill="#FF8C00" stroke="#333" stroke-width="1"/>
  <rect x="540" y="325" width="20" height="25" fill="#FF8C00" stroke="#333" stroke-width="1"/>
  
  <rect x="120" y="330" width="20" height="20" fill="#FF8C00" stroke="#333" stroke-width="1"/>
  <rect x="560" y="330" width="20" height="20" fill="#FF8C00" stroke="#333" stroke-width="1"/>
  
  <rect x="100" y="335" width="20" height="15" fill="#FF8C00" stroke="#333" stroke-width="1"/>
  <rect x="580" y="335" width="20" height="15" fill="#FF8C00" stroke="#333" stroke-width="1"/>
  
  <rect x="80" y="340" width="20" height="10" fill="#FF8C00" stroke="#333" stroke-width="1"/>
  <rect x="600" y="340" width="20" height="10" fill="#FF8C00" stroke="#333" stroke-width="1"/>
  
  <!-- Threshold Line for Balanced Data -->
  <line x1="80" y1="290" x2="600" y2="290" stroke="#FF0000" stroke-width="2" stroke-dasharray="5,5"/>
  <text x="630" y="295" font-family="Arial" font-size="12" text-anchor="start" fill="#FF0000">Limite (300)</text>
  
  <!-- Axis Labels -->
  <text x="80" y="165" font-family="Arial" font-size="10" text-anchor="middle" fill="#333">-1.0</text>
  <text x="200" y="165" font-family="Arial" font-size="10" text-anchor="middle" fill="#333">-0.5</text>
  <text x="340" y="165" font-family="Arial" font-size="10" text-anchor="middle" fill="#333">0</text>
  <text x="480" y="165" font-family="Arial" font-size="10" text-anchor="middle" fill="#333">0.5</text>
  <text x="600" y="165" font-family="Arial" font-size="10" text-anchor="middle" fill="#333">1.0</text>
  
  <text x="80" y="365" font-family="Arial" font-size="10" text-anchor="middle" fill="#333">-1.0</text>
  <text x="200" y="365" font-family="Arial" font-size="10" text-anchor="middle" fill="#333">-0.5</text>
  <text x="340" y="365" font-family="Arial" font-size="10" text-anchor="middle" fill="#333">0</text>
  <text x="480" y="365" font-family="Arial" font-size="10" text-anchor="middle" fill="#333">0.5</text>
  <text x="600" y="365" font-family="Arial" font-size="10" text-anchor="middle" fill="#333">1.0</text>
  
  <!-- Annotations -->
  <text x="350" y="40" font-family="Arial" font-size="12" text-anchor="middle" fill="#666">Comparação antes e depois do balanceamento</text>
  
  <!-- Legend -->
  <rect x="520" y="20" width="15" height="15" fill="#4682B4" stroke="#333" stroke-width="1"/>
  <text x="540" y="32" font-family="Arial" font-size="12" text-anchor="start" fill="#333">Distribuição Original</text>
  
  <rect x="520" y="40" width="15" height="15" fill="#FF8C00" stroke="#333" stroke-width="1"/>
  <text x="540" y="52" font-family="Arial" font-size="12" text-anchor="start" fill="#333">Distribuição Balanceada</text>
</svg>
